<?xml version="1.0" encoding="utf-8"?>
<!-- Generator: Adobe Illustrator 16.0.0, SVG Export Plug-In . SVG Version: 6.00 Build 0)  -->
<!DOCTYPE svg PUBLIC "-//W3C//DTD SVG 1.1//EN" "http://www.w3.org/Graphics/SVG/1.1/DTD/svg11.dtd">
<svg version="1.1" id="Capa_1" xmlns="http://www.w3.org/2000/svg" xmlns:xlink="http://www.w3.org/1999/xlink" x="0px" y="0px"
	 width="279px" height="227px" viewBox="0 0 279 227" enable-background="new 0 0 279 227" xml:space="preserve">
<g>
	<defs>
		<path id="SVGID_1_" d="M0.671,217.482v3.078c4.948,1.346,8.865,2.381,11.24,2.957c3.63,0.954,6.79,1.757,9.606,2.425h4.961
			l7.497-31.852c-7.102-1.347-12.681-2.993-26.157-7.484L0.671,217.482z"/>
	</defs>
	<clipPath id="SVGID_2_">
		<use xlink:href="#SVGID_1_"  overflow="visible"/>
	</clipPath>
	
		<linearGradient id="SVGID_3_" gradientUnits="userSpaceOnUse" x1="0.0024" y1="226.3457" x2="1.0029" y2="226.3457" gradientTransform="matrix(33.9748 0 0 -33.9748 -0.0312 7896.311)">
		<stop  offset="0" style="stop-color:#ED1C24"/>
		<stop  offset="1" style="stop-color:#AF0F1E"/>
	</linearGradient>
	<rect x="0.671" y="186.606" clip-path="url(#SVGID_2_)" fill="url(#SVGID_3_)" width="33.304" height="39.336"/>
</g>
<g>
	<defs>
		<path id="SVGID_4_" d="M216.029,67.686c3.733,7.196,6.131,14.839,7.112,22.923l27.407-9.059
			c-0.835-8.354-2.78-16.247-5.915-23.859L216.029,67.686z"/>
	</defs>
	<clipPath id="SVGID_5_">
		<use xlink:href="#SVGID_4_"  overflow="visible"/>
	</clipPath>
	
		<linearGradient id="SVGID_6_" gradientUnits="userSpaceOnUse" x1="0.0039" y1="226.4492" x2="1.0039" y2="226.4492" gradientTransform="matrix(34.5197 0 0 -34.5197 215.875 7891.1279)">
		<stop  offset="0" style="stop-color:#ED1C24"/>
		<stop  offset="1" style="stop-color:#AF0F1E"/>
	</linearGradient>
	<rect x="216.029" y="57.69" clip-path="url(#SVGID_5_)" fill="url(#SVGID_6_)" width="34.519" height="32.918"/>
</g>
<g>
	<defs>
		<path id="SVGID_7_" d="M163.872,191.662c2.411,4.642,3.96,9.576,4.592,14.792l17.684-5.846
			c-0.539-5.393-1.794-10.484-3.819-15.395L163.872,191.662z"/>
	</defs>
	<clipPath id="SVGID_8_">
		<use xlink:href="#SVGID_7_"  overflow="visible"/>
	</clipPath>
	
		<linearGradient id="SVGID_9_" gradientUnits="userSpaceOnUse" x1="0.0098" y1="226.4141" x2="1.0098" y2="226.4141" gradientTransform="matrix(22.2755 0 0 -22.2755 163.6562 5239.3354)">
		<stop  offset="0" style="stop-color:#ED1C24"/>
		<stop  offset="1" style="stop-color:#AF0F1E"/>
	</linearGradient>
	<rect x="163.872" y="185.214" clip-path="url(#SVGID_8_)" fill="url(#SVGID_9_)" width="22.276" height="21.24"/>
</g>
<g>
	<defs>
		<path id="SVGID_10_" d="M81.653,184.189c3.476,1.26,6.624,3.12,9.412,5.608l6.817-12.335c-2.818-2.63-5.88-4.731-9.277-6.337
			L81.653,184.189z"/>
	</defs>
	<clipPath id="SVGID_11_">
		<use xlink:href="#SVGID_10_"  overflow="visible"/>
	</clipPath>
	
		<linearGradient id="SVGID_12_" gradientUnits="userSpaceOnUse" x1="0.019" y1="226.2822" x2="1.019" y2="226.2822" gradientTransform="matrix(16.2284 0 0 -16.2284 81.3438 3852.6592)">
		<stop  offset="0" style="stop-color:#ED1C24"/>
		<stop  offset="1" style="stop-color:#AF0F1E"/>
	</linearGradient>
	<rect x="81.653" y="171.126" clip-path="url(#SVGID_11_)" fill="url(#SVGID_12_)" width="16.229" height="18.672"/>
</g>
<g>
	<defs>
		<path id="SVGID_13_" d="M111.74,87.209c3.476,1.263,6.625,3.122,9.412,5.613l6.815-12.336c-2.814-2.629-5.879-4.732-9.273-6.337
			L111.74,87.209z"/>
	</defs>
	<clipPath id="SVGID_14_">
		<use xlink:href="#SVGID_13_"  overflow="visible"/>
	</clipPath>
	
		<linearGradient id="SVGID_15_" gradientUnits="userSpaceOnUse" x1="-0.0127" y1="226.248" x2="0.9873" y2="226.248" gradientTransform="matrix(16.2272 0 0 -16.2272 111.9453 3754.8555)">
		<stop  offset="0" style="stop-color:#ED1C24"/>
		<stop  offset="1" style="stop-color:#AF0F1E"/>
	</linearGradient>
	<rect x="111.74" y="74.149" clip-path="url(#SVGID_14_)" fill="url(#SVGID_15_)" width="16.227" height="18.673"/>
</g>
<g>
	<defs>
		<path id="SVGID_16_" d="M119.749,211.589c2.453,0.889,4.674,2.203,6.643,3.959l4.809-8.704c-1.989-1.857-4.152-3.341-6.545-4.472
			L119.749,211.589z"/>
	</defs>
	<clipPath id="SVGID_17_">
		<use xlink:href="#SVGID_16_"  overflow="visible"/>
	</clipPath>
	
		<linearGradient id="SVGID_18_" gradientUnits="userSpaceOnUse" x1="0.0176" y1="226.2129" x2="1.0176" y2="226.2129" gradientTransform="matrix(11.452 0 0 -11.452 119.5547 2799.5417)">
		<stop  offset="0" style="stop-color:#ED1C24"/>
		<stop  offset="1" style="stop-color:#AF0F1E"/>
	</linearGradient>
	<rect x="119.749" y="202.372" clip-path="url(#SVGID_17_)" fill="url(#SVGID_18_)" width="11.452" height="13.176"/>
</g>
<g>
	<defs>
		<path id="SVGID_19_" d="M41.428,127.538c0.61,3.192,1.111,5.705,1.435,7.19c0.699,3.504,1.291,6.258,1.862,8.571l17.923-4.012
			c-1.112-4.157-1.697-7.569-2.864-15.937L41.428,127.538z"/>
	</defs>
	<clipPath id="SVGID_20_">
		<use xlink:href="#SVGID_19_"  overflow="visible"/>
	</clipPath>
	
		<linearGradient id="SVGID_21_" gradientUnits="userSpaceOnUse" x1="0.0029" y1="226.4082" x2="1.0029" y2="226.4082" gradientTransform="matrix(21.2201 0 0 -21.2201 41.3594 4937.7285)">
		<stop  offset="0" style="stop-color:#ED1C24"/>
		<stop  offset="1" style="stop-color:#AF0F1E"/>
	</linearGradient>
	<rect x="41.428" y="123.352" clip-path="url(#SVGID_20_)" fill="url(#SVGID_21_)" width="21.22" height="19.948"/>
</g>
<g>
	<defs>
		<path id="SVGID_22_" d="M168.831,48.93l0.511,18.028c4.334-0.971,8.68-1.098,13.026-0.342l-0.222-17.184
			c-2.751-0.547-5.479-0.82-8.211-0.82C172.238,48.612,170.538,48.718,168.831,48.93"/>
	</defs>
	<clipPath id="SVGID_23_">
		<use xlink:href="#SVGID_22_"  overflow="visible"/>
	</clipPath>
	
		<linearGradient id="SVGID_24_" gradientUnits="userSpaceOnUse" x1="0.0283" y1="226.1396" x2="1.0283" y2="226.1396" gradientTransform="matrix(13.537 0 0 -13.537 168.4609 3119.032)">
		<stop  offset="0" style="stop-color:#ED1C24"/>
		<stop  offset="1" style="stop-color:#AF0F1E"/>
	</linearGradient>
	<rect x="168.831" y="48.612" clip-path="url(#SVGID_23_)" fill="url(#SVGID_24_)" width="13.537" height="18.346"/>
</g>
<g>
	<defs>
		<path id="SVGID_25_" d="M107.259,134.067l2.996,7.748c1.221-0.504,2.181-0.904,2.744-1.152c1.338-0.564,2.388-1.028,3.26-1.447
			l-2.898-7.566C111.799,132.439,110.489,132.948,107.259,134.067"/>
	</defs>
	<clipPath id="SVGID_26_">
		<use xlink:href="#SVGID_25_"  overflow="visible"/>
	</clipPath>
	
		<linearGradient id="SVGID_27_" gradientUnits="userSpaceOnUse" x1="-0.0098" y1="226.1309" x2="0.9902" y2="226.1309" gradientTransform="matrix(9.0005 0 0 -9.0005 107.3438 2172.0195)">
		<stop  offset="0" style="stop-color:#ED1C24"/>
		<stop  offset="1" style="stop-color:#AF0F1E"/>
	</linearGradient>
	<rect x="107.259" y="131.649" clip-path="url(#SVGID_26_)" fill="url(#SVGID_27_)" width="9" height="10.166"/>
</g>
<g>
	<defs>
		<path id="SVGID_28_" d="M160.238,101.977c0.394,1.927,0.454,3.862,0.159,5.8l6.909-0.133c0.348-1.99,0.408-3.947,0.179-5.93
			L160.238,101.977z"/>
	</defs>
	<clipPath id="SVGID_29_">
		<use xlink:href="#SVGID_28_"  overflow="visible"/>
	</clipPath>
	
		<linearGradient id="SVGID_30_" gradientUnits="userSpaceOnUse" x1="0.0479" y1="226.2832" x2="1.0479" y2="226.2832" gradientTransform="matrix(7.3835 0 0 -7.3835 159.8867 1775.5076)">
		<stop  offset="0" style="stop-color:#ED1C24"/>
		<stop  offset="1" style="stop-color:#AF0F1E"/>
	</linearGradient>
	<rect x="160.238" y="101.714" clip-path="url(#SVGID_29_)" fill="url(#SVGID_30_)" width="7.476" height="6.062"/>
</g>
<g>
	<defs>
		<path id="SVGID_31_" d="M171.855,141.882c0.447,2.171,0.515,4.354,0.181,6.536l7.789-0.146c0.394-2.242,0.46-4.45,0.199-6.686
			L171.855,141.882z"/>
	</defs>
	<clipPath id="SVGID_32_">
		<use xlink:href="#SVGID_31_"  overflow="visible"/>
	</clipPath>
	
		<linearGradient id="SVGID_33_" gradientUnits="userSpaceOnUse" x1="-0.0425" y1="226.2256" x2="0.9575" y2="226.2256" gradientTransform="matrix(8.3246 0 0 -8.3246 172.2109 2028.2311)">
		<stop  offset="0" style="stop-color:#ED1C24"/>
		<stop  offset="1" style="stop-color:#AF0F1E"/>
	</linearGradient>
	<rect x="171.855" y="141.586" clip-path="url(#SVGID_32_)" fill="url(#SVGID_33_)" width="8.43" height="6.832"/>
</g>
<g>
	<defs>
		<path id="SVGID_34_" d="M250.548,26.035l0.003,0.001c4.403,0.57,8.529,1.937,12.354,4.133l0.002-0.004l5.667-16.219
			c-3.889-2.357-7.965-4.022-12.34-5.026L250.548,26.035z"/>
	</defs>
	<clipPath id="SVGID_35_">
		<use xlink:href="#SVGID_34_"  overflow="visible"/>
	</clipPath>
	
		<linearGradient id="SVGID_36_" gradientUnits="userSpaceOnUse" x1="0.0215" y1="226.0625" x2="1.0215" y2="226.0625" gradientTransform="matrix(12.7207 4.6299 4.6299 -12.7207 -793.7061 2892.8018)">
		<stop  offset="0" style="stop-color:#ED1C24"/>
		<stop  offset="1" style="stop-color:#AF0F1E"/>
	</linearGradient>
	<polygon clip-path="url(#SVGID_35_)" fill="url(#SVGID_36_)" points="252.657,3.127 275.403,11.405 266.465,35.963 243.719,27.684 
			"/>
</g>
</svg>
